<svg xmlns="http://www.w3.org/2000/svg" width="1277px" height="538px" style="shape-rendering:geometricPrecision; text-rendering:geometricPrecision; image-rendering:optimizeQuality; fill-rule:evenodd; clip-rule:evenodd" viewBox="0 0 1277 537.596" fill="#000000">
  <path class="fil0" d="M557.696 461.036c12.389,-31.058 18.16,-41.32 21.695,-79.03l23.874 21.329c20.372,17.084 66.607,46.466 71.283,67.539 3.318,14.95 -9.135,22.715 -21.556,24.659 -43.921,6.873 -59.071,-49.976 -95.296,-34.497zm-163.094 -354.23c-1.002,-6.819 -10.443,-22.495 -14.049,-28.818 -19.196,-33.649 -16.053,-20.987 -54.082,-18.557 -13.57,0.867 -27.601,0.497 -41.229,0.545 -53.394,0.184 -108.224,0.461 -161.307,4.498 -45.46,3.456 -108.201,7.279 -120.676,45.503 -17.802,54.547 41.545,149.764 75.892,166.676 28.631,14.097 35.854,-18.701 28.423,-41.72 -8.006,-24.8 -39.09,-48.879 -59.286,-64.716 -33.708,-26.431 -27.944,-63.204 11.899,-68.549 21.097,-2.83 57.805,0.54 79.693,2.292 22.974,1.839 132.891,12.109 146.459,18.64 -0.944,2.185 -7.231,10.131 -11.54,18.953 -17.594,36.026 -21.917,89.23 -23.878,129.3 -0.646,13.213 -0.128,47.543 -3.803,57.439 -11.11,4.323 -59.04,-0.494 -77.59,2.631 -24.09,4.058 -42.571,20.547 -34.89,40.9 9.467,1.999 13.537,-4.753 25.203,-5.577 7.749,-0.548 19.547,1.397 27.593,2.358 17.259,2.062 35.474,4.342 51.298,8.423 4.881,59.274 -21.793,168.108 -105.919,128.711 -39.601,-18.546 -33.43,-58.154 -45.995,-80.722 -10.038,-18.03 -31.254,-24.157 -41.037,-15.131 -17.077,15.755 -9.424,82.849 59.745,115.167 32.693,15.276 71.71,14.179 110.228,9.336 93.616,-11.771 86.438,-65.702 100.777,-151.143 30.597,-7.899 63.762,-3.273 93.594,-16.157 2.639,26.304 -4.315,48.823 1.431,77.307 9.555,47.367 50.261,75.347 94.35,61.577 23.266,-7.266 33.959,-19.513 45.431,-34.801 2.576,22.173 14.512,30.469 32.902,37.827 47.547,19.023 147.355,16.005 154.544,-33.035 3.238,-22.087 -16.841,-36.045 -25.468,-45.35 -11.079,-11.951 -61.542,-46.841 -75.3,-63.375 -11.436,-13.744 -20.997,-27.413 -10.319,-51.529 6.482,-14.638 22.564,-28.465 45.614,-25.578 17.681,2.215 24.334,29.079 46.679,9.823 9.794,-8.441 22.444,-32.305 18.679,-50.541 -9.138,-44.266 -165.152,-11.737 -181.593,57.01 -6.65,27.81 3.443,40.141 8.731,56.623 -10.487,2.297 -11.771,9.677 -14.048,20.831 -5.523,27.055 -10.124,52.109 -28.456,71.436 -9.88,10.418 -30.742,22.358 -45.387,6.676 -11.208,-12 -11.722,-36.196 -11.938,-55.36 -0.442,-39.259 -1.71,-89.471 8.357,-125.558 2.395,-8.583 8.688,-16.923 5.76,-25.271 -7.381,-21.042 -69.15,-23.643 -75.402,-12.354 -1.795,5.803 3.372,14.633 4.622,21.84 2.021,11.654 1.939,73.497 0.707,82.103 -19.449,-14.742 -58.202,-14.254 -86.218,-16.63 -11.063,-0.938 -7.454,-6.922 -7.311,-18.817 0.097,-8.079 0.301,-15.906 0.566,-23.966 1.327,-40.476 5.191,-99.458 22.193,-134.002 19.392,-39.398 28.372,-33.204 55.351,-47.168z"/>
  <path class="fil0" d="M1164.498 262.375c32.841,-9.326 19.7,47.635 14.932,64.972 -6.944,25.249 -19.695,48.59 -40.579,55.48 -21.574,7.118 -23.389,-3.145 -21.13,-22.462 3.531,-30.193 18.554,-89.976 46.777,-97.99zm-322.168 138.018c-1.744,-31.603 0.934,-70.713 1.495,-103.109 1.285,-74.203 3.236,-122.083 9.31,-196.122 2.585,-31.513 7.36,-61.43 10.656,-91.907 -15.573,-12.861 -67.421,-11.344 -83.681,-1.422 -0.564,7.852 2.015,9.384 3.612,16.413 2.59,11.4 1.033,403.064 1.035,434.388 0.001,11.469 0.76,25.302 -1.972,36.26 -3.202,12.843 -4.814,18.442 6.864,24.724 13.946,7.501 33.339,6.313 49.06,3.124 2.499,-0.507 12.995,-2.429 14.554,-4.502 0.989,-2.384 5.391,-50.517 6.825,-59.37 3.089,-19.076 7.076,-36.827 11.373,-55.49 6.397,-27.789 21.523,-76.045 34.767,-96.616 2.822,57.84 -7.293,148.499 22.656,192.293 25.665,37.53 76.244,30.943 106.003,-5.525 8.885,-10.888 12.885,-19.513 20.308,-33.023 9.863,18.214 14.885,41.738 41.965,58.279 21.49,13.126 53.256,19.389 83.248,13.544 49.932,-9.731 82.984,-55.001 93.202,-107.974 2.369,-12.28 8.008,-37.228 -4.132,-41.962 -15.969,-6.227 -16.805,18.067 -19.273,29.126 -6.743,30.216 -15.812,52.369 -33.433,67.909 -18.47,16.288 -53.803,23.04 -77.282,6.348 -25.174,-17.898 -29.367,-42.135 -28.211,-70.53 15.564,0.105 21.792,4.021 39.783,-0.25 63.709,-15.128 78.693,-115.526 68.399,-150.556 -16.917,-57.561 -105.382,-83.094 -148.901,19.402 -11.813,27.824 -19.205,58.029 -22.055,89.637l-12.383 53.283c-6.553,22.827 -17.876,45.867 -36.424,52.878 -31.197,11.794 -36.409,-22.391 -38.219,-47.745 -2.784,-38.981 1.54,-87.478 7.929,-126.547 1.293,-7.908 7.009,-32.093 6.936,-37.439 -0.114,-8.327 -5.725,-9.027 -9.849,-13.15 -12.292,-12.287 -1.979,-23.276 -36.346,-30.245 -19.412,-3.935 -22.504,-0.93 -30.645,10.979 -5.663,8.283 -10.533,18.534 -14.94,29.054 -12.778,30.504 -23.667,68.051 -32.404,100.905l-7.81 30.901c-2.168,6.028 2.777,-6.306 -0.897,2.048l-1.123 1.989z"/>
  <path class="fil0" d="M1217.337 95.229c6.705,-8.954 7.376,-36.646 1.698,-48.835 -22.695,-5.497 -82.306,45.421 -100.936,61.003 -2.713,2.269 -4.099,4.262 -6.632,6.643 -8.716,8.194 -16.412,12.697 -17.549,24.865 -1.236,13.235 1.824,11.303 6.668,19.1 11.502,18.515 10.295,-0.695 45.81,-23.671 35.234,-22.793 31.049,-23.716 70.941,-39.105z"/>
  <path class="fil0" d="M431.152 110.359c-53.94,11.496 -35.241,23.506 -25.125,36.798 10.451,13.732 28.627,31.912 56.58,31.348 10.446,-0.211 27.245,-3.813 32.989,-9.594 5.275,-5.31 3.042,-9.473 -0.551,-14.733 -10.577,-15.487 -9.431,-24.731 -29.744,-36.946 -8.634,-5.192 -22.555,-9.344 -34.149,-6.873z"/>
</svg>
